<svg width="14" height="13" viewBox="0 0 14 13" fill="none" xmlns="http://www.w3.org/2000/svg">
<path d="M7.35665 1.12019L8.2017 3.721C8.41925 4.39054 9.04318 4.84385 9.74717 4.84385H12.4818C12.8451 4.84385 12.9961 5.3087 12.7022 5.52223L10.4899 7.12962C9.92032 7.54342 9.682 8.27689 9.89955 8.94642L10.7446 11.5472C10.8569 11.8927 10.4614 12.18 10.1675 11.9665L7.95515 10.3591C7.38561 9.94531 6.61439 9.94531 6.04485 10.3591L3.83247 11.9665C3.53857 12.18 3.14314 11.8927 3.2554 11.5472L4.10045 8.94642C4.318 8.27689 4.07968 7.54342 3.51014 7.12962L1.29776 5.52223C1.00386 5.3087 1.15491 4.84385 1.51818 4.84385H4.25283C4.95682 4.84385 5.58075 4.39054 5.7983 3.721L6.64335 1.12019C6.75561 0.774695 7.24439 0.774697 7.35665 1.12019Z" stroke="#5799EF" stroke-width="1.25"/>
</svg>
